# xmcd
#
# Track frame offsets:
#	150
#	23017
#	49162
#	71017
#
# Disc length: 1239 seconds
#
# Revision: 1
# Processed by: cddbd v1.5PL3 Copyright (c) Steve Scherf et al.
# Submitted via: CDex 1.50Beta5
#
DISCID=2e04d504
DTITLE=Shulla - 「修羅」
DYEAR=1900
DGENRE=Rock
TTITLE0=水恋歌
TTITLE1=君から始まるAの唄
TTITLE2=ガラクタ
TTITLE3=矛盾
EXTD=
EXTT0=
EXTT1=
EXTT2=
EXTT3=
PLAYORDER=
